<svg version="1.1" id="Layer_1" xmlns="http://www.w3.org/2000/svg" xmlns:xlink="http://www.w3.org/1999/xlink" x="0px" y="0px"
	 width="100%" viewBox="0 0 2371 2064" enable-background="new 0 0 2371 2064" xml:space="preserve">
<path fill="#2B2927" opacity="1.000000" stroke="none" 
	d="
M807.669250,1610.000000 
	C807.669250,1361.124146 807.669250,1113.248413 807.669250,864.852295 
	C906.690002,864.852295 1004.842407,864.852295 1104.101318,864.852295 
	C1104.101318,955.748718 1104.101318,1046.501709 1104.101318,1137.789307 
	C1164.402710,1137.789307 1223.603516,1137.789307 1283.074097,1137.789307 
	C1283.041626,1137.821777 1283.286499,1137.594482 1283.510254,1137.348022 
	C1283.727295,1137.108765 1284.076538,1136.864502 1284.101807,1136.597412 
	C1284.226440,1135.272705 1284.320923,1133.939819 1284.322388,1132.609619 
	C1284.417114,1043.966431 1284.501587,955.323303 1284.601440,866.680176 
	C1284.601685,866.380432 1284.814941,866.080994 1285.204346,865.056152 
	C1383.369263,865.056152 1481.813599,865.056152 1580.963135,865.056152 
	C1580.963135,1129.390015 1580.963135,1393.811768 1580.963135,1658.951660 
	C1482.614990,1658.951660 1384.170776,1658.951660 1284.664551,1658.951660 
	C1284.664551,1562.261963 1284.664551,1465.498901 1284.664551,1368.205078 
	C1224.165649,1368.205078 1164.726562,1368.205078 1104.566895,1368.205078 
	C1104.566895,1465.187622 1104.566895,1561.729004 1104.566895,1658.968506 
	C1005.447571,1658.968506 907.046021,1658.968506 807.669250,1658.968506 
	C807.669250,1642.818604 807.669250,1626.909302 807.669250,1610.000000 
z"/>
<path fill="#DEA44B" opacity="1.000000" stroke="none" 
	d="
M1303.302490,694.675415 
	C1280.202637,666.154785 1267.052368,634.034668 1264.484863,598.347473 
	C1257.643311,503.247955 1322.749512,425.676147 1409.281494,411.867615 
	C1471.906860,401.874023 1526.017212,420.154053 1569.200439,466.923859 
	C1593.714111,493.473663 1608.059204,525.352051 1612.361084,561.600708 
	C1618.594849,614.129150 1604.966675,660.896423 1569.917358,700.210022 
	C1536.497925,737.695496 1494.150879,757.375671 1443.193115,758.481995 
	C1406.666260,759.275024 1373.436401,750.041321 1342.959595,730.411682 
	C1328.056274,720.812683 1314.827393,709.178284 1303.302490,694.675415 
z"/>
<path fill="#567A58" opacity="1.000000" stroke="none" 
	d="
M1096.563477,507.649261 
	C1101.555298,522.847290 1107.885254,537.073120 1110.543701,551.954834 
	C1120.050293,605.172791 1107.952515,653.516174 1073.686279,695.580933 
	C1048.465332,726.541870 1015.989685,746.876343 976.801880,754.647339 
	C916.154907,766.673645 862.242371,752.662903 816.942139,709.477783 
	C786.042969,680.021240 768.488831,643.547302 764.652832,601.427307 
	C759.749512,547.589294 776.169922,500.432251 814.131409,461.290039 
	C841.798645,432.762238 875.617859,415.533325 914.706299,410.746094 
	C965.853821,404.481995 1012.318420,416.898193 1052.337524,450.737305 
	C1070.965210,466.488373 1084.967773,485.597382 1096.563477,507.649261 
z"/>
</svg>