
        <svg xmlns="http://www.w3.org/2000/svg" xmlns:xlink="http://www.w3.org/1999/xlink" version="1.1" width="2592.4348347358587" height="3162.0271771709918" viewBox="0 0 2592.4348347358587 3162.0271771709918">
&#x9;&#x9;&#x9;
&#x9;&#x9;&#x9;<g transform="scale(8.101358858549558) translate(10, 10)">
&#x9;&#x9;&#x9;&#x9;<defs id="SvgjsDefs3413"></defs><g id="SvgjsG3414" featureKey="YvLwfh-0" transform="matrix(0.2972504020314409,0,0,0.2972504020314409,1.3747853772360088,-28.62521462276399)" fill="#fff"><g xmlns="http://www.w3.org/2000/svg"><polygon points="500,96.3 445.7,127.6 554.3,127.6  "></polygon><polygon points="540.5,820.6 459.5,820.6 500,843.9  "></polygon><polygon points="500,156.1 459.5,179.4 540.5,179.4  "></polygon><polygon points="414.1,179.4 464.5,150.4 406.3,150.4 355.9,179.4  "></polygon><polygon points="298.1,150.4 266.8,204.7 360.9,150.4  "></polygon><polygon points="304.7,242.6 374.8,202.2 328,202.2  "></polygon><polygon points="585.9,179.4 644.1,179.4 593.7,150.4 535.5,150.4  "></polygon><polygon points="328,797.8 374.8,797.8 304.7,757.4  "></polygon><polygon points="757.4,304.7 797.8,374.8 797.8,328  "></polygon><polygon points="625.2,202.2 695.3,242.6 672,202.2  "></polygon><polygon points="843.9,500 820.6,459.5 820.6,540.5  "></polygon><polygon points="849.6,298.1 795.3,266.8 849.6,360.9  "></polygon><polygon points="797.8,625.2 757.4,695.3 797.8,672  "></polygon><polygon points="849.6,406.3 820.6,355.9 820.6,414.1 849.6,464.5  "></polygon><polygon points="701.9,150.4 639.1,150.4 733.2,204.7  "></polygon><polygon points="695.3,757.4 625.2,797.8 672,797.8  "></polygon><polygon points="734.7,265.3 785,294.4 756,244 705.6,215  "></polygon><polygon points="294.4,215 244,244 215,294.4 265.3,265.3  "></polygon><polygon points="179.4,355.9 150.4,406.3 150.4,464.5 179.4,414.1  "></polygon><polygon points="705.6,785 756,756 785,705.6 734.7,734.7  "></polygon><polygon points="585.9,820.6 535.5,849.6 593.7,849.6 644.1,820.6  "></polygon><polygon points="701.9,849.6 733.2,795.3 639.1,849.6  "></polygon><polygon points="500,903.7 554.3,872.4 445.7,872.4  "></polygon><polygon points="820.6,585.9 820.6,644.1 849.6,593.7 849.6,535.5  "></polygon><polygon points="872.4,445.7 872.4,554.3 903.7,500  "></polygon><polygon points="414.1,820.6 355.9,820.6 406.3,849.6 464.5,849.6  "></polygon><polygon points="849.6,701.9 849.6,639.1 795.3,733.2  "></polygon><polygon points="150.4,593.7 179.4,644.1 179.4,585.9 150.4,535.5  "></polygon><polygon points="156.1,500 179.4,540.5 179.4,459.5  "></polygon><polygon points="150.4,298.1 150.4,360.9 204.7,266.8  "></polygon><polygon points="202.2,328 202.2,374.8 242.6,304.7  "></polygon><polygon points="242.6,695.3 202.2,625.2 202.2,672  "></polygon><polygon points="265.3,734.7 215,705.6 244,756 294.4,785  "></polygon><polygon points="298.1,849.6 360.9,849.6 266.8,795.3  "></polygon><polygon points="150.4,701.9 204.7,733.2 150.4,639.1  "></polygon><polygon points="127.6,554.3 127.6,445.7 96.3,500  "></polygon></g></g><g id="SvgjsG3415" featureKey="JZW510-0" transform="matrix(3.6864088704213445,0,0,3.6864088704213445,-4.276233727187406,238.98747189954176)" fill="#fff"><path d="M1.16 20 l0 -14.3 l5.34 0 l0 4.94 l3.26 0 l0 -4.94 l5.32 0 l0 14.3 l-5.32 0 l0 -5.26 l-3.26 0 l0 5.26 l-5.34 0 z M24.26 20.28 c-4.42 0 -6.94 -2.12 -6.94 -6.38 l0 -8.2 l5.32 0 l0 8.04 c0 1.52 0.2 2.38 1.62 2.38 c1.4 0 1.52 -0.92 1.52 -2.34 l0 -8.08 l5.36 0 l0 8.22 c0 4.52 -2.78 6.36 -6.88 6.36 z M33.38 20 l0 -14.3 l6.84 0 l1.88 5.72 l1.94 -5.72 l6.72 0 l0 14.3 l-5.3 0 l0 -7.6 l-2.84 7.6 l-1.8 0 l-2.72 -7.6 l0 7.6 l-4.72 0 z M51.96 20 l4.4 -14.3 l6.86 0 l4.38 14.3 l-5.68 0 l-0.48 -1.9 l-4.04 0 l-0.48 1.9 l-4.96 0 z M59.44 9.98 l-1.16 4.56 l2.28 0 z M68.78 20 l0 -14.3 l5.94 0 l3.1 6.64 l0 -6.64 l4.72 0 l0 14.3 l-5.06 0 l-3.96 -7.8 l0 7.8 l-4.74 0 z"></path></g><g id="SvgjsG3416" featureKey="JZW510-1" transform="matrix(3.145972882529176,0,0,3.145972882529176,-1.1954700553891116,306.7600670436187)" fill="#fff"><path d="M8.16 20.28 c-5.08 0 -7.78 -3 -7.78 -7.34 l0 -0.16 c0 -4.44 3.4 -7.3 7.78 -7.3 c3.66 0 6.92 1.64 7.1 5.64 l-5.26 0 c-0.08 -0.86 -0.6 -1.46 -1.82 -1.46 c-1.36 0 -2.26 1.12 -2.26 3.22 l0 0.16 c0 1.7 0.42 3.22 2.44 3.22 c1.44 0 1.94 -0.62 2.08 -1.16 l-2 0 l0 -3.24 l7.14 0 l0 2 c0 3.4 -2.28 6.42 -7.42 6.42 z M17.1 20 l0 -14.3 l6.28 0 c4.26 0 6.24 1.72 6.24 4.82 l0 0.08 c0 1.88 -0.82 3 -2.1 3.7 l2.94 5.7 l-5.54 0 l-2.22 -4.54 l-0.3 0 l0 4.54 l-5.3 0 z M22.4 12.12 l0.6 0 c1.04 0 1.5 -0.42 1.5 -1.26 l0 -0.08 c0 -0.78 -0.46 -1.12 -1.46 -1.12 l-0.64 0 l0 2.46 z M38.82 16.12 c1.4 0 2.3 -1.12 2.3 -3.2 l0 -0.16 c0 -2.2 -0.96 -3.14 -2.32 -3.14 c-1.34 0 -2.26 0.96 -2.26 3.14 l0 0.16 c0 2.16 0.82 3.2 2.28 3.2 z M38.68 20.28 c-4.82 0 -7.7 -2.9 -7.7 -7.34 l0 -0.16 c0 -4.52 3.5 -7.3 7.82 -7.3 c4.44 0 7.88 2.5 7.88 7.16 l0 0.16 c0 4.58 -3.14 7.48 -8 7.48 z M50.46 20 l-3.32 -14.3 l5.34 0 l1.32 7.86 l1.34 -7.86 l4.48 0 l1.66 7.96 l1.42 -7.96 l4.92 0 l-3.32 14.3 l-5.1 0 l-1.66 -7.56 l-1.64 7.56 l-5.44 0 z M71.5 20 l0 -10.22 l-3.46 0 l0 -4.08 l12.28 0 l0 4.08 l-3.46 0 l0 10.22 l-5.36 0 z M81.82 20 l0 -14.3 l5.34 0 l0 4.94 l3.26 0 l0 -4.94 l5.32 0 l0 14.3 l-5.32 0 l0 -5.26 l-3.26 0 l0 5.26 l-5.34 0 z"></path></g>
&#x9;&#x9;&#x9;</g>
&#x9;&#x9;</svg>
